<?xml version="1.0" encoding="UTF-8"?>
<svg xmlns="http://www.w3.org/2000/svg" viewBox="0 0 720 360" role="img" aria-labelledby="title desc">
  <title id="title">Doc Q&amp;A Studio architecture overview</title>
  <desc id="desc">React frontend connects to FastAPI RAG backend with ingestion, hybrid retrieval, reranking, and Chroma or pgvector storage.</desc>
  <defs>
    <marker id="arrow" markerWidth="6" markerHeight="6" refX="5" refY="3" orient="auto" markerUnits="userSpaceOnUse">
      <path d="M0,0 L6,3 L0,6 Z" fill="#64748b"/>
    </marker>
  </defs>
  <rect width="720" height="360" fill="#fafafa"/>
  <text x="360" y="24" text-anchor="middle" font-family="system-ui, sans-serif" font-size="14" font-weight="600" fill="#1a1a1a">Doc Q&amp;A Studio architecture</text>
  <text x="360" y="42" text-anchor="middle" font-family="system-ui, sans-serif" font-size="10" fill="#64748b">Week 3 project -- ingest, hybrid search, rerank, cite, eval</text>

  <rect x="40" y="58" width="640" height="72" rx="8" fill="#eff6ff" stroke="#2563eb"/>
  <text x="360" y="78" text-anchor="middle" font-family="system-ui, sans-serif" font-size="11" font-weight="600" fill="#1d4ed8">React Frontend</text>
  <text x="140" y="100" text-anchor="middle" font-family="system-ui, sans-serif" font-size="9" fill="#64748b">Upload UI</text>
  <text x="360" y="100" text-anchor="middle" font-family="system-ui, sans-serif" font-size="9" fill="#64748b">Chat UI (SSE stream)</text>
  <text x="580" y="100" text-anchor="middle" font-family="system-ui, sans-serif" font-size="9" fill="#64748b">Source citations</text>

  <line x1="360" y1="130" x2="360" y2="148" stroke="#64748b" stroke-width="1.5" marker-end="url(#arrow)"/>

  <rect x="40" y="152" width="640" height="136" rx="8" fill="#ffffff" stroke="#cbd5e1" stroke-width="2"/>
  <text x="360" y="172" text-anchor="middle" font-family="system-ui, sans-serif" font-size="11" font-weight="600" fill="#475569">FastAPI Backend</text>
  <rect x="56" y="182" width="72" height="28" rx="4" fill="#eff6ff" stroke="#2563eb"/>
  <text x="92" y="200" text-anchor="middle" font-family="system-ui, sans-serif" font-size="8" fill="#1d4ed8">Ingest</text>
  <rect x="136" y="182" width="72" height="28" rx="4" fill="#eff6ff" stroke="#2563eb"/>
  <text x="172" y="200" text-anchor="middle" font-family="system-ui, sans-serif" font-size="8" fill="#1d4ed8">Chunk</text>
  <rect x="216" y="182" width="72" height="28" rx="4" fill="#eff6ff" stroke="#2563eb"/>
  <text x="252" y="200" text-anchor="middle" font-family="system-ui, sans-serif" font-size="8" fill="#1d4ed8">Embed</text>
  <rect x="296" y="182" width="88" height="28" rx="4" fill="#fff7ed" stroke="#ea580c"/>
  <text x="340" y="200" text-anchor="middle" font-family="system-ui, sans-serif" font-size="8" fill="#9a3412">Hybrid RRF</text>
  <rect x="392" y="182" width="72" height="28" rx="4" fill="#fff7ed" stroke="#ea580c"/>
  <text x="428" y="200" text-anchor="middle" font-family="system-ui, sans-serif" font-size="8" fill="#9a3412">Rerank</text>
  <rect x="472" y="182" width="80" height="28" rx="4" fill="#f1f5f9" stroke="#cbd5e1"/>
  <text x="512" y="200" text-anchor="middle" font-family="system-ui, sans-serif" font-size="8" fill="#475569">Assemble</text>
  <rect x="560" y="182" width="72" height="28" rx="4" fill="#f0fdf4" stroke="#16a34a"/>
  <text x="596" y="200" text-anchor="middle" font-family="system-ui, sans-serif" font-size="8" fill="#166534">LLM Gen</text>
  <rect x="56" y="220" width="100" height="28" rx="4" fill="#eff6ff" stroke="#2563eb"/>
  <text x="106" y="238" text-anchor="middle" font-family="system-ui, sans-serif" font-size="8" fill="#1d4ed8">POST /index</text>
  <rect x="164" y="220" width="100" height="28" rx="4" fill="#eff6ff" stroke="#2563eb"/>
  <text x="214" y="238" text-anchor="middle" font-family="system-ui, sans-serif" font-size="8" fill="#1d4ed8">POST /chat_stream</text>
  <rect x="272" y="220" width="88" height="28" rx="4" fill="#f1f5f9" stroke="#cbd5e1"/>
  <text x="316" y="238" text-anchor="middle" font-family="system-ui, sans-serif" font-size="8" fill="#475569">RAGAS eval</text>
  <rect x="368" y="220" width="100" height="28" rx="4" fill="#f1f5f9" stroke="#cbd5e1"/>
  <text x="418" y="238" text-anchor="middle" font-family="system-ui, sans-serif" font-size="8" fill="#475569">Week 2 providers</text>
  <text x="360" y="268" text-anchor="middle" font-family="ui-monospace, monospace" font-size="8" fill="#64748b">Target: &lt; 3s to first token</text>

  <line x1="200" y1="288" x2="200" y2="304" stroke="#64748b" stroke-width="1.5" marker-end="url(#arrow)"/>
  <line x1="360" y1="288" x2="360" y2="304" stroke="#64748b" stroke-width="1.5" marker-end="url(#arrow)"/>
  <line x1="520" y1="288" x2="520" y2="304" stroke="#64748b" stroke-width="1.5" marker-end="url(#arrow)"/>

  <rect x="120" y="308" width="160" height="36" rx="8" fill="#eff6ff" stroke="#2563eb"/>
  <text x="200" y="330" text-anchor="middle" font-family="system-ui, sans-serif" font-size="9" fill="#1d4ed8">Chroma (local)</text>

  <rect x="300" y="308" width="160" height="36" rx="8" fill="#f0fdf4" stroke="#16a34a"/>
  <text x="380" y="330" text-anchor="middle" font-family="system-ui, sans-serif" font-size="9" fill="#166534">pgvector (prod)</text>

  <rect x="480" y="308" width="120" height="36" rx="8" fill="#1e293b"/>
  <text x="540" y="330" text-anchor="middle" font-family="system-ui, sans-serif" font-size="9" fill="#94a3b8">Parsed JSON</text>

  <text x="360" y="356" text-anchor="middle" font-family="system-ui, sans-serif" font-size="9" fill="#64748b">Work dir: ~/ai-learning/week-03-work/doc-qa-studio/</text>
</svg>
